HIERARCHY
ROOT SpineBase
{
  OFFSET 0.000000 0.000000 0.000000
  CHANNELS 6 Xposition Yposition Zposition Zrotation Xrotation Yrotation
  JOINT SpineMid
  {
    OFFSET 0.000000 30.847502 0.000000
    CHANNELS 3 Zrotation Xrotation Yrotation
    JOINT SpineShoulder
    {
      OFFSET 0.057387 22.825382 -0.930603
      CHANNELS 3 Zrotation Xrotation Yrotation
      JOINT Neck
      {
        OFFSET 0.037734 7.613395 -0.633481
        CHANNELS 3 Zrotation Xrotation Yrotation
        JOINT Head
        {
          OFFSET 4.227723 14.369691 3.851303
          CHANNELS 3 Zrotation Xrotation Yrotation
          End Site
          {
            OFFSET 0 0 0
          }
        }
      }
      JOINT ShoulderLeft
      {
        OFFSET -9.514898 -4.432930 -12.083838
        CHANNELS 3 Zrotation Xrotation Yrotation
        JOINT ElbowLeft
        {
          OFFSET -4.089748 -23.056562 -9.209240
          CHANNELS 3 Zrotation Xrotation Yrotation
          JOINT WristLeft
          {
            OFFSET 2.110608 -22.505138 -6.357581
            CHANNELS 3 Zrotation Xrotation Yrotation
            JOINT HandLeft
            {
              OFFSET -0.490620 -8.345252 -1.960389
              CHANNELS 3 Zrotation Xrotation Yrotation
              JOINT HandTipLeft
              {
                OFFSET 0.521760 -8.109709 -0.412877
                CHANNELS 3 Zrotation Xrotation Yrotation
                End Site
                {
                  OFFSET 0 0 0
                }
              }
              JOINT ThumbLeft
              {
                OFFSET 3.826754 2.705600 -0.645113
                CHANNELS 3 Zrotation Xrotation Yrotation
                End Site
                {
                  OFFSET 0 0 0
                }
              }
            }
          }
        }
      }
      JOINT ShoulderRight
      {
        OFFSET 9.355196 -6.323116 11.722635
        CHANNELS 3 Zrotation Xrotation Yrotation
        JOINT ElbowRight
        {
          OFFSET 1.373787 -21.790229 -3.822022
          CHANNELS 3 Zrotation Xrotation Yrotation
          JOINT WristRight
          {
            OFFSET 6.300122 -25.882233 8.091233
            CHANNELS 3 Zrotation Xrotation Yrotation
            JOINT HandRight
            {
              OFFSET 2.539360 -7.145513 1.609609
              CHANNELS 3 Zrotation Xrotation Yrotation
              JOINT HandTipRight
              {
                OFFSET 0.947047 -4.200234 -0.575181
                CHANNELS 3 Zrotation Xrotation Yrotation
                End Site
                {
                  OFFSET 0 0 0
                }
              }
              JOINT ThumbRight
              {
                OFFSET 3.718813 0.466613 -4.512648
                CHANNELS 3 Zrotation Xrotation Yrotation
                End Site
                {
                  OFFSET 0 0 0
                }
              }
            }
          }
        }
      }
    }
  }
  JOINT HipLeft
  {
    OFFSET -4.287932 1.360897 -7.985960
    CHANNELS 3 Zrotation Xrotation Yrotation
    JOINT KneeLeft
    {
      OFFSET -11.002921 -38.605617 -1.220081
      CHANNELS 3 Zrotation Xrotation Yrotation
      JOINT AnkleLeft
      {
        OFFSET -6.510658 -37.218608 7.654922
        CHANNELS 3 Zrotation Xrotation Yrotation
        JOINT FootLeft
        {
          OFFSET 1.421535 -8.475459 -3.408815
          CHANNELS 3 Zrotation Xrotation Yrotation
          End Site
          {
            OFFSET 0 0 0
          }
        }
      }
    }
  }
  JOINT HipRight
  {
    OFFSET 5.229761 0.061102 0.857026
    CHANNELS 3 Zrotation Xrotation Yrotation
    JOINT KneeRight
    {
      OFFSET 1.047575 -41.096747 3.346240
      CHANNELS 3 Zrotation Xrotation Yrotation
      JOINT AnkleRight
      {
        OFFSET -7.017643 -37.529932 8.493262
        CHANNELS 3 Zrotation Xrotation Yrotation
        JOINT FootRight
        {
          OFFSET 7.995368 -3.730878 -9.590350
          CHANNELS 3 Zrotation Xrotation Yrotation
          End Site
          {
            OFFSET 0 0 0
          }
        }
      }
    }
  }
}
MOTION
Frames: 13
Frame Time: 0.033333
-42.325599 87.326078 345.422242 -0.000000 0.000000 -42.895478 -0.000000 0.000000 42.895478 -0.000000 0.000000 0.000000 -0.000000 0.000000 0.000000 0.000000 0.000000 0.000000 -0.000000 0.000000 0.000000 -0.000000 0.000000 0.000000 -0.000000 0.000000 0.000000 -0.000000 0.000000 0.000000 0.000000 0.000000 0.000000 0.000000 0.000000 0.000000 -0.000000 0.000000 0.000000 -0.000000 0.000000 0.000000 -0.000000 0.000000 0.000000 -0.000000 0.000000 0.000000 0.000000 0.000000 0.000000 0.000000 0.000000 0.000000 -0.000000 0.000000 42.895478 -0.000000 0.000000 0.000000 -0.000000 0.000000 0.000000 0.000000 0.000000 0.000000 -0.000000 0.000000 42.895478 -0.000000 0.000000 0.000000 -0.000000 0.000000 0.000000 0.000000 0.000000 0.000000
-42.287956 87.473603 345.440777 0.147269 -0.028116 -43.836414 -0.125702 -0.081718 43.836360 -0.000000 0.000000 0.000000 -0.000000 0.000000 0.000000 0.000000 0.000000 0.000000 -0.074704 1.482434 -0.230942 2.019940 1.328279 -0.050416 3.236606 -1.074628 -0.903455 0.515050 0.432435 1.151096 0.000000 0.000000 0.000000 0.000000 0.000000 0.000000 0.007565 -6.716352 -0.429222 -1.325591 11.990185 1.566581 -6.577682 3.345383 0.307620 7.705399 -8.660169 -0.730868 0.000000 0.000000 0.000000 0.000000 0.000000 0.000000 -0.125702 -0.081718 43.836360 -0.000000 0.000000 0.000000 4.154511 3.937378 -1.131326 0.000000 0.000000 0.000000 -0.883850 -0.571073 43.764280 0.885996 -0.171023 0.069083 -0.000000 0.000000 0.000000 0.000000 0.000000 0.000000
-42.264475 87.596384 345.437041 0.279848 -0.027728 -44.572421 -0.218814 -0.176648 44.572151 -0.000000 0.000000 0.000000 -0.751712 1.280899 -0.166175 0.000000 0.000000 0.000000 -0.178680 2.610113 -0.384018 3.583983 2.176823 -0.107819 6.109370 -2.352584 -1.410811 1.012657 1.614266 1.965389 0.000000 0.000000 0.000000 0.000000 0.000000 0.000000 -0.044661 -12.203034 -0.783920 -3.232954 22.843428 3.552041 -11.360938 4.950479 0.064856 13.447816 -16.849731 -0.806315 0.000000 0.000000 0.000000 0.000000 0.000000 0.000000 -0.218814 -0.176648 44.572151 -0.000000 0.000000 0.000000 7.584911 7.038956 -2.258903 0.000000 0.000000 0.000000 -1.589699 -1.051776 44.436481 2.848442 -0.199993 0.391914 -1.257877 -0.126516 -0.261806 0.000000 0.000000 0.000000
-42.255155 87.694420 345.411035 0.397549 0.001291 -45.111084 -0.279652 -0.282564 45.110390 -0.000000 0.000000 0.000000 -1.095074 1.763545 -0.207098 0.000000 0.000000 0.000000 -0.316076 3.351437 -0.453625 4.777134 2.696597 -0.194423 8.425425 -3.963651 -1.561726 1.302209 3.395486 2.366164 0.000000 0.000000 0.000000 0.000000 0.000000 0.000000 -0.135179 -16.577016 -1.075992 -5.814619 32.264880 6.038306 -14.265195 5.052057 -0.708924 17.923650 -22.288405 -0.275968 0.000000 0.000000 0.000000 0.000000 0.000000 0.000000 -0.279652 -0.282564 45.110390 -0.000000 0.000000 0.000000 10.211265 9.301462 -3.232149 0.000000 0.000000 0.000000 -2.132339 -1.433523 44.922377 3.811719 -0.359966 0.541015 -1.688544 -0.117921 -0.360765 0.000000 0.000000 0.000000
-42.259997 87.767713 345.362758 0.500212 0.059010 -45.458539 -0.308808 -0.397911 45.457209 -0.000000 0.000000 0.000000 -1.417774 2.141976 -0.221836 0.000000 0.000000 0.000000 -0.488785 3.683581 -0.436724 5.657111 2.985812 -0.331972 10.088379 -5.983012 -1.399008 1.284502 5.665296 2.354344 0.000000 0.000000 0.000000 0.000000 0.000000 0.000000 -0.249449 -19.986766 -1.313957 -9.060109 39.978691 9.008609 -15.572801 4.082553 -1.743525 20.882647 -25.925350 0.259698 0.000000 0.000000 0.000000 0.000000 0.000000 0.000000 -0.308808 -0.397911 45.457209 -0.000000 0.000000 0.000000 11.994240 10.767542 -3.944312 0.000000 0.000000 0.000000 -2.522943 -1.710306 45.230372 4.472117 -0.564061 0.656774 -1.982251 -0.061775 -0.436690 0.000000 0.000000 0.000000
-42.279000 87.816261 345.292211 0.587704 0.145450 -45.619377 -0.307110 -0.521763 45.617233 0.664343 0.598501 0.048864 -2.382245 1.821011 -0.285417 0.000000 0.000000 0.000000 -1.356989 2.995676 -0.396280 6.256102 3.095160 -0.536056 11.053214 -8.449347 -0.970413 0.951091 8.380285 1.990460 0.000000 0.000000 0.000000 0.000000 0.000000 0.000000 -1.067917 -23.169652 -1.568770 -12.766893 45.803613 12.263691 -15.609650 2.384777 -2.739199 22.305719 -27.977840 0.531006 0.000000 0.000000 0.000000 0.000000 0.000000 0.000000 -0.307110 -0.521763 45.617233 0.431561 -0.775886 0.227244 12.571243 12.194169 -4.729258 0.000000 0.000000 0.000000 -2.769220 -1.878080 45.366887 4.832173 -0.814185 0.737484 -2.137311 0.041218 -0.489013 0.000000 0.000000 0.000000
-42.313210 87.840352 345.216756 0.653776 0.253725 -45.460764 -0.190144 0.244493 45.484979 0.029401 0.132185 0.029228 -2.536356 1.800448 -0.287835 0.000000 0.000000 0.000000 -1.698701 2.382248 -0.199993 6.493333 2.422716 -0.820790 11.425642 -12.392498 -0.110042 0.680988 12.801293 0.985327 0.000000 0.000000 0.000000 0.000000 0.000000 0.000000 -1.292352 -25.915678 -1.785092 -18.026252 50.825828 16.551824 -14.134901 -2.701123 -4.926159 19.651370 -26.731252 -0.036263 0.000000 0.000000 0.000000 0.000000 0.000000 0.000000 -1.161903 -0.622441 45.283495 1.160040 -1.589634 0.457445 13.097812 12.903637 -5.090547 0.000000 0.000000 0.000000 -2.633007 -1.680059 45.239338 4.180460 -1.025884 0.643146 -1.785629 0.102128 -0.420495 0.000000 0.000000 0.000000
-42.314904 87.845757 345.123155 0.744729 0.373345 -45.005561 -0.180320 0.226906 45.031779 0.037677 0.132301 0.033167 -2.780126 1.739896 -0.268360 0.000000 0.000000 0.000000 -1.905919 1.293064 0.001104 6.335195 2.273252 -1.112008 10.676041 -16.930319 0.926073 0.499165 17.277329 -0.130112 0.000000 0.000000 0.000000 0.000000 0.000000 0.000000 -1.560529 -27.597368 -1.932871 -22.944817 52.772997 19.868773 -11.929377 -6.826786 -5.955058 17.481625 -23.899784 0.078792 0.000000 0.000000 0.000000 0.000000 0.000000 0.000000 -1.310808 -0.724131 44.785182 1.376723 -1.912290 0.559161 12.544687 12.963179 -4.974267 0.000000 0.000000 0.000000 -2.704453 -1.631361 44.789295 3.938414 -1.392342 0.635671 -1.610399 0.285581 -0.413000 0.000000 0.000000 0.000000
-42.368690 87.813867 344.979703 0.770245 0.558850 -44.691140 -0.143278 0.202484 44.717234 0.057807 0.126403 0.036106 -3.124372 1.572484 -0.190556 0.000000 0.000000 0.000000 -2.214487 -0.326993 0.339772 6.176470 1.963379 -1.584084 8.156132 -19.852171 1.663191 -0.057818 19.916693 -0.733455 0.000000 0.000000 0.000000 0.000000 0.000000 0.000000 -1.792328 -28.131537 -1.988097 -24.892434 52.569931 20.723235 -6.371071 -11.776100 -5.222334 13.313122 -19.919477 -0.412255 0.000000 0.000000 0.000000 0.000000 0.000000 0.000000 -1.320910 -0.825630 44.435665 1.542149 -2.227148 0.653652 11.201949 11.997332 -4.541820 0.000000 0.000000 0.000000 -2.606366 -1.566641 44.486934 3.688486 -1.805479 0.650657 -1.440725 1.087070 0.576103 0.000000 0.000000 0.000000
-42.509219 87.764450 344.795472 0.742222 0.763897 -44.477887 -0.113825 0.168009 44.501391 0.062555 0.110957 0.035094 -3.568235 1.389623 -0.057382 0.000000 0.000000 0.000000 -2.648401 -1.971257 0.760018 5.735092 1.217221 -2.028360 6.179658 -21.209691 1.987208 -1.016403 21.570961 -0.812623 0.000000 0.000000 0.000000 0.000000 0.000000 0.000000 -1.952640 -27.036562 -1.901760 -22.702826 49.864142 18.127160 3.003716 -16.189126 -1.747409 5.994499 -15.226664 -1.783838 0.000000 0.000000 0.000000 0.000000 0.000000 0.000000 -1.209570 -0.861244 44.191980 1.611522 -2.536474 0.744070 8.780557 10.373268 -3.655388 0.000000 0.000000 0.000000 -2.288520 -1.419524 44.304031 3.330009 -2.207480 0.673298 -1.422703 1.552366 0.947505 0.000000 0.000000 0.000000
-42.687219 87.706319 344.613131 0.718159 0.953314 -44.523331 -0.108971 0.148865 44.544097 0.065866 0.101495 0.033786 -4.076694 1.233969 0.078147 0.000000 0.000000 0.000000 -3.303811 -3.598041 1.243523 5.704767 0.425961 -2.622064 2.310706 -21.210113 2.312958 -0.585899 22.669680 -1.166046 0.000000 0.000000 0.000000 0.000000 0.000000 0.000000 -2.420663 -27.475822 -1.967746 -18.131934 50.899585 16.520999 9.148004 -19.725151 0.825434 0.339279 -12.018310 -3.182581 0.000000 0.000000 0.000000 0.000000 0.000000 0.000000 -1.080992 -0.889048 44.211538 1.671597 -2.805499 0.829659 5.106035 7.652575 -2.351410 0.000000 0.000000 0.000000 -1.931763 -1.237292 44.386712 2.955451 -2.616185 0.703153 -1.422991 1.973531 1.125051 0.000000 0.000000 0.000000
-42.915586 87.634286 344.435524 0.681502 1.104316 -44.808514 -0.123817 0.142018 44.826143 0.049542 0.090668 0.029965 -4.685599 1.093946 0.251330 0.000000 0.000000 0.000000 -3.726826 -5.053978 1.622774 4.842517 -0.337939 -2.902284 0.081881 -20.369068 2.399184 -0.418469 23.180319 -1.281962 0.000000 0.000000 0.000000 0.000000 0.000000 0.000000 -2.608108 -27.194470 -1.949138 -9.686302 51.027301 12.754513 10.907174 -20.761181 2.063466 -2.069804 -12.165960 -4.969313 0.000000 0.000000 0.000000 0.000000 0.000000 0.000000 -0.896111 -0.874711 44.483752 1.646892 -3.016148 0.894335 0.907577 3.044222 -1.200504 0.000000 0.000000 0.000000 -1.535887 -1.018316 44.714279 2.604087 -2.957165 0.738762 -1.475770 2.321361 1.177792 0.000000 0.000000 0.000000
-43.197016 87.547222 344.283019 0.651811 1.210943 -45.206582 -0.166062 0.154413 45.221215 0.015286 0.082385 0.024450 -5.188973 1.045160 0.379246 0.000000 0.000000 0.000000 -4.107008 -6.234538 1.943073 3.927769 -0.812621 -3.052904 -2.728119 -19.060862 2.561632 0.575010 22.544610 -1.707774 0.000000 0.000000 0.000000 0.000000 0.000000 0.000000 -1.953958 -26.740182 -1.846338 3.150961 50.868603 7.257817 6.192333 -20.611764 0.198227 0.960421 -11.924552 -6.110993 0.000000 0.000000 0.000000 0.000000 0.000000 0.000000 -0.651838 -0.809284 44.882822 1.534181 -3.171072 0.943756 4.282449 6.114655 -2.387396 0.000000 0.000000 0.000000 -1.148275 -0.780989 45.155582 2.265486 -3.159379 0.757961 -1.572785 2.580442 1.332304 0.000000 0.000000 0.000000
